<?xml version="1.0" encoding="UTF-8"?><svg id="Camada_2" xmlns="http://www.w3.org/2000/svg" viewBox="0 0 472.85 244.66"><defs><style>.cls-1{fill:#fb7d10;}.cls-1,.cls-2,.cls-3{stroke-width:0px;}.cls-2{fill:#730d83;}.cls-3{fill:#f5f5f5;}</style></defs><g id="Layer_1"><path class="cls-2" d="m12.44,55.39c-3.39,0-6.34,1.23-8.77,3.67-2.43,2.43-3.67,5.38-3.67,8.77s1.23,6.34,3.67,8.77c2.43,2.43,5.38,3.66,8.77,3.66s6.34-1.23,8.77-3.66c2.43-2.43,3.67-5.38,3.67-8.77s-1.23-6.34-3.67-8.77c-2.43-2.43-5.38-3.67-8.77-3.67Z"/><path class="cls-2" d="m12.44,84.39c-2.93,0-5.43.98-7.41,2.9-2.03,1.96-3.06,4.51-3.06,7.57v58.4c0,2.95,1.01,5.46,3.01,7.46,1.99,2,4.5,3.01,7.46,3.01s5.61-1.03,7.57-3.05c1.92-1.99,2.9-4.48,2.9-7.42v-58.4c0-3.04-.99-5.57-2.94-7.53-1.96-1.95-4.49-2.94-7.53-2.94Z"/><path class="cls-2" d="m134.64,87.51h0c-4.41-2.5-9.5-3.77-15.12-3.77-6.31,0-12.02,1.4-16.99,4.15-2.11,1.17-4.06,2.56-5.8,4.15-1.71-1.79-3.65-3.31-5.79-4.52-4.41-2.5-9.5-3.77-15.12-3.77s-11.14,1.42-15.75,4.23c-.29.18-.59.37-.88.56-.28-.37-.58-.72-.91-1.06-1.96-1.95-4.49-2.94-7.52-2.94s-5.42.98-7.41,2.9c-2.03,1.96-3.06,4.51-3.06,7.57v58.4c0,2.96,1.01,5.47,3.01,7.46,2,2,4.51,3.01,7.46,3.01s5.61-1.03,7.57-3.06c1.92-1.99,2.9-4.49,2.9-7.41v-37.01c0-3.94,1.12-7.04,3.43-9.48,2.28-2.42,4.99-3.54,8.54-3.54s5.99.95,7.98,2.92c1.95,1.92,2.94,5.15,2.94,9.58v37.53c0,2.96,1.01,5.47,3.01,7.46,2,2,4.51,3.01,7.46,3.01s5.61-1.03,7.57-3.06c1.92-1.99,2.9-4.49,2.9-7.41v-37.01c0-3.95,1.11-7.05,3.38-9.5,2.24-2.4,4.92-3.52,8.46-3.52s5.98.95,7.98,2.92c1.95,1.92,2.94,5.15,2.94,9.58v37.53c0,2.96,1.01,5.47,3.01,7.46,2,2,4.51,3.01,7.46,3.01s5.61-1.03,7.57-3.06c1.92-1.99,2.9-4.49,2.9-7.41v-37.53c0-6.6-1.22-12.36-3.62-17.12-2.48-4.9-6.01-8.68-10.49-11.23Z"/><path class="cls-2" d="m234.41,103.3h0c-3.43-6.04-8.21-10.84-14.2-14.27-5.98-3.42-12.88-5.16-20.51-5.16s-14.66,1.74-20.64,5.16c-5.99,3.43-10.77,8.23-14.2,14.27-3.42,6.02-5.15,13.03-5.15,20.83s1.73,14.68,5.15,20.7c3.43,6.04,8.21,10.84,14.2,14.27,5.98,3.42,12.92,5.16,20.64,5.16s14.67-1.74,20.64-5.16c6-3.43,10.76-8.24,14.15-14.29,3.37-6.02,5.07-12.97,5.07-20.68s-1.73-14.81-5.15-20.83Zm-24.58,38.98c-2.89,1.73-6.3,2.61-10.13,2.61s-7.24-.88-10.13-2.61c-2.9-1.74-5.22-4.17-6.9-7.24-1.69-3.09-2.55-6.77-2.55-10.92s.86-7.85,2.56-11c1.68-3.1,3.99-5.55,6.89-7.29,2.89-1.73,6.3-2.61,10.13-2.61s7.24.88,10.13,2.61c2.89,1.73,5.18,4.17,6.81,7.25,1.67,3.15,2.51,6.86,2.51,11.03s-.84,7.84-2.5,10.95c-1.63,3.05-3.92,5.47-6.81,7.2Z"/><path class="cls-1" d="m344.55,235.38l99.61-61.99c38.45-23.93,38.21-79.98-.45-103.58l-99.61-60.81c-40.54-24.75-92.53,4.43-92.53,51.93v122.8c0,47.73,52.46,76.87,92.98,51.65Z"/><path class="cls-3" d="m293.01,96.3h0c3.13-3.33,6.81-5.99,10.93-7.89,4.06-1.88,8.47-2.83,13.1-2.83,5.18,0,9.33.65,12.33,1.94,3.11,1.34,6.2,3.32,9.21,5.92,2.21,1.82,4.66,2.68,7.33,2.55,2.61-.13,4.87-1.1,6.7-2.86,1.9-1.83,2.9-4.2,2.9-6.86,0-1.08-.09-2.01-.29-2.87-.24-1.02-.69-2.02-1.35-2.97-.61-.88-1.43-1.71-2.36-2.41-5.22-4.28-10.52-7.4-15.76-9.3-5.26-1.89-11.55-2.85-18.71-2.85-7.69,0-14.93,1.48-21.52,4.4-6.56,2.9-12.38,6.97-17.31,12.08-4.92,5.11-8.81,11.13-11.57,17.91-2.76,6.78-4.16,14.19-4.16,22.02s1.4,15.38,4.16,22.2c2.76,6.82,6.65,12.87,11.57,17.98,4.93,5.12,10.79,9.17,17.4,12.03,6.63,2.87,13.84,4.32,21.43,4.32,6.35,0,12.52-1.02,18.34-3.04,5.84-2.02,11.32-5.15,16.3-9.28l.09-.08c1.24-1.1,2.13-2.37,2.65-3.78.46-1.24.69-2.53.69-3.84v-31.51c0-2.99-.97-5.51-2.88-7.49-1.94-2.01-4.47-3.03-7.51-3.03h-24.66c-2.83,0-5.28.88-7.28,2.61-2.12,1.84-3.24,4.3-3.24,7.12s1.12,5.28,3.24,7.12c2,1.73,4.45,2.61,7.28,2.61h14.53v17.72c-2.02,1.17-4.08,2.16-6.16,2.96-3.56,1.37-7.4,2.06-11.41,2.06-4.64,0-9.06-.93-13.13-2.77-4.11-1.86-7.78-4.48-10.9-7.81-3.14-3.34-5.62-7.27-7.37-11.7-1.75-4.42-2.64-9.27-2.64-14.41s.89-9.85,2.64-14.28c1.75-4.42,4.23-8.36,7.37-11.69Z"/><path class="cls-3" d="m443.04,101.54h0c-3.44-6.05-8.22-10.86-14.22-14.29-5.99-3.43-12.9-5.16-20.54-5.16s-14.69,1.74-20.68,5.16c-6,3.44-10.79,8.24-14.22,14.29-3.42,6.03-5.16,13.05-5.16,20.86s1.74,14.7,5.16,20.73c3.43,6.05,8.22,10.86,14.22,14.29,5.98,3.43,12.94,5.17,20.68,5.17s14.69-1.74,20.68-5.16c6.01-3.44,10.77-8.25,14.17-14.31,3.37-6.02,5.08-12.99,5.08-20.71s-1.74-14.83-5.16-20.86Zm-15.09,20.86c0,4.2-.85,7.92-2.53,11.06-1.65,3.08-3.97,5.53-6.9,7.29-2.92,1.75-6.37,2.64-10.25,2.64s-7.32-.89-10.25-2.64c-2.94-1.76-5.29-4.23-6.98-7.32-1.71-3.13-2.58-6.84-2.58-11.03s.87-7.94,2.59-11.11c1.7-3.13,4.04-5.61,6.97-7.37,2.92-1.75,6.37-2.64,10.25-2.64s7.32.89,10.25,2.64c2.92,1.75,5.24,4.22,6.89,7.34,1.69,3.19,2.54,6.94,2.54,11.14Z"/></g></svg>